# xmcd
#
# Track frame offsets:
# 150
# 14615
# 29298
# 45953
# 64278
# 80713
# 97728
# 111310
# 133953
# 145493
# 160153
# 176325
#
# Disc length: 2660 seconds
#
#
# Revision: 2
# Processed by: cddbd v1.5.2PL0 Copyright (c) Steve Scherf et al.
# Submitted via: FreeRIP 2.951 
#
DISCID=a10a620c
DTITLE=Kitty Donohoe - As Sparks Fly Upward
DYEAR=1992
DGENRE=Folk
TTITLE0=Chester City
TTITLE1=Steady as a River
TTITLE2=Give In to the Blues
TTITLE3=Thin Ice
TTITLE4=Look for the Light
TTITLE5=Autumn Dance
TTITLE6=Seasons of the Heart
TTITLE7=Emma Sutter
TTITLE8=Angelo's
TTITLE9=North Country
TTITLE10=Blue Collar Poet
TTITLE11=To America
EXTD=
EXTT0=
EXTT1=
EXTT2=
EXTT3=
EXTT4=
EXTT5=
EXTT6=
EXTT7=
EXTT8=
EXTT9=
EXTT10=
EXTT11=
PLAYORDER=
